<svg xmlns="http://www.w3.org/2000/svg" xmlns:xlink="http://www.w3.org/1999/xlink" width="600" zoomAndPan="magnify" viewBox="0 0 450 449.999984" height="600" preserveAspectRatio="xMidYMid meet" version="1.0"><defs><g/><clipPath id="98b71648a0"><path d="M 351.144531 218.074219 L 450 218.074219 L 450 326.042969 L 351.144531 326.042969 Z M 351.144531 218.074219 " clip-rule="nonzero"/></clipPath><clipPath id="ec0307dbab"><path d="M 4.808594 158.792969 L 440 158.792969 L 440 297 L 4.808594 297 Z M 4.808594 158.792969 " clip-rule="nonzero"/></clipPath></defs><g clip-path="url(#98b71648a0)"><path fill="#621e0b" d="M 383.300781 309.019531 L 383.148438 308.878906 C 377.433594 304.054688 366.289062 292.253906 365.816406 291.753906 L 357.425781 282.261719 L 357.386719 282.21875 L 357.359375 282.175781 C 356.632812 281.085938 356.46875 279.742188 356.914062 278.480469 C 357.199219 277.683594 357.769531 276.964844 358.53125 276.457031 L 358.589844 276.414062 C 358.902344 276.210938 359.234375 276.046875 359.582031 275.925781 C 359.996094 275.789062 360.429688 275.71875 360.871094 275.71875 C 361.84375 275.71875 362.78125 276.058594 363.519531 276.675781 L 370.25 282.332031 L 370.222656 282.257812 L 374.4375 285.765625 C 375.136719 286.347656 375.960938 286.652344 376.8125 286.652344 C 377.550781 286.652344 378.285156 286.421875 378.933594 285.976562 C 380.34375 285.007812 380.910156 283.332031 380.359375 281.707031 L 363.113281 230.636719 C 362.652344 229.261719 362.757812 227.792969 363.40625 226.492188 C 364.054688 225.195312 365.164062 224.226562 366.539062 223.765625 L 366.691406 223.714844 C 367.25 223.53125 367.824219 223.4375 368.410156 223.4375 C 370.75 223.4375 372.820312 224.929688 373.5625 227.152344 L 378.410156 241.53125 L 387.507812 268.769531 C 387.84375 269.777344 388.785156 270.453125 389.847656 270.453125 C 390.113281 270.453125 390.378906 270.410156 390.628906 270.324219 L 390.675781 270.308594 C 391.304688 270.101562 391.808594 269.664062 392.101562 269.070312 C 392.394531 268.484375 392.441406 267.816406 392.234375 267.1875 L 388.933594 257.316406 L 388.957031 257.304688 C 388.546875 255.964844 388.660156 254.542969 389.289062 253.277344 C 389.9375 251.980469 391.050781 251.011719 392.425781 250.554688 L 392.574219 250.5 C 393.136719 250.316406 393.710938 250.222656 394.292969 250.222656 C 396.632812 250.222656 398.707031 251.714844 399.445312 253.929688 L 400.765625 257.878906 L 400.785156 257.871094 L 403.910156 267.226562 C 404.121094 267.847656 404.558594 268.355469 405.152344 268.652344 C 405.496094 268.824219 405.867188 268.910156 406.246094 268.910156 C 406.511719 268.910156 406.777344 268.867188 407.035156 268.78125 L 407.078125 268.769531 C 407.707031 268.558594 408.210938 268.117188 408.503906 267.527344 C 408.796875 266.941406 408.84375 266.273438 408.636719 265.648438 L 405.351562 255.816406 L 405.335938 255.757812 L 405.324219 255.710938 C 404.824219 253.054688 406.375 250.410156 408.9375 249.554688 L 409.082031 249.503906 C 409.640625 249.320312 410.222656 249.222656 410.804688 249.222656 C 413.050781 249.222656 415.027344 250.574219 415.851562 252.671875 L 415.859375 252.6875 L 420.359375 266.15625 C 420.695312 267.164062 421.632812 267.839844 422.699219 267.839844 C 422.960938 267.839844 423.226562 267.796875 423.476562 267.714844 L 423.527344 267.695312 C 424.148438 267.488281 424.65625 267.050781 424.949219 266.457031 C 425.242188 265.871094 425.292969 265.203125 425.082031 264.578125 L 422.023438 255.425781 L 422.015625 255.394531 C 421.203125 252.589844 422.738281 249.667969 425.503906 248.742188 L 425.65625 248.695312 C 426.21875 248.503906 426.796875 248.410156 427.382812 248.410156 C 428.222656 248.410156 429.035156 248.601562 429.800781 248.984375 C 431.097656 249.628906 432.066406 250.742188 432.523438 252.121094 L 443.847656 286.007812 C 445.605469 291.273438 445.410156 296.503906 443.265625 301.550781 L 443.199219 301.710938 L 443.183594 301.761719 L 443.167969 301.804688 C 443.023438 302.15625 442.597656 303.128906 441.808594 304.457031 C 440.597656 306.535156 439.070312 308.554688 437.261719 310.460938 C 436.796875 310.945312 436.183594 311.46875 435.441406 312.015625 L 435.261719 312.152344 C 432.035156 314.914062 428.246094 317.09375 423.996094 318.636719 C 419.277344 320.347656 414.617188 321.210938 410.148438 321.210938 C 406.359375 321.210938 403.449219 320.578125 401.671875 320.046875 L 401.644531 320.039062 L 399.265625 319.128906 C 391.601562 316.199219 387.335938 312.96875 383.300781 309.019531 Z M 410.117188 326.183594 C 414.753906 326.183594 419.5625 325.359375 424.40625 323.742188 C 424.816406 323.601562 425.246094 323.453125 425.683594 323.296875 C 430.457031 321.5625 434.738281 319.105469 438.402344 315.988281 L 438.445312 315.957031 C 439.390625 315.261719 440.199219 314.558594 440.851562 313.875 C 442.925781 311.691406 444.6875 309.371094 446.082031 306.96875 C 446.960938 305.492188 447.566406 304.195312 447.835938 303.472656 L 447.847656 303.449219 C 450.460938 297.261719 450.699219 290.867188 448.546875 284.4375 L 437.226562 250.550781 C 436.347656 247.921875 434.5 245.785156 432.015625 244.546875 C 430.554688 243.820312 429 243.449219 427.390625 243.449219 C 426.273438 243.449219 425.160156 243.628906 424.085938 243.992188 L 423.9375 244.042969 C 422.132812 244.644531 420.535156 245.71875 419.320312 247.160156 L 418.722656 247.867188 L 418.058594 247.21875 C 416.105469 245.316406 413.53125 244.265625 410.816406 244.265625 C 409.691406 244.265625 408.582031 244.445312 407.515625 244.804688 L 407.363281 244.851562 C 405.539062 245.460938 403.921875 246.5625 402.699219 248.039062 L 402.105469 248.742188 L 401.4375 248.109375 C 399.496094 246.277344 396.957031 245.265625 394.289062 245.265625 C 393.171875 245.265625 392.066406 245.445312 391.007812 245.796875 L 390.859375 245.847656 C 389.457031 246.316406 388.203125 247.058594 387.121094 248.050781 L 386.144531 248.953125 L 383.171875 240.066406 L 383.152344 240.078125 L 378.265625 225.574219 C 377.386719 222.945312 375.535156 220.816406 373.046875 219.578125 C 371.585938 218.847656 370.027344 218.476562 368.414062 218.476562 C 367.300781 218.476562 366.191406 218.65625 365.125 219.015625 L 364.972656 219.066406 C 362.34375 219.941406 360.210938 221.796875 358.972656 224.28125 C 357.734375 226.765625 357.535156 229.585938 358.414062 232.214844 L 374.25 279.117188 L 364.511719 272.417969 C 363.179688 271.503906 361.632812 271.019531 360.039062 271.019531 C 358.636719 271.019531 357.269531 271.402344 356.097656 272.128906 C 356.003906 272.183594 355.914062 272.242188 355.828125 272.296875 L 355.773438 272.335938 C 354.132812 273.4375 352.886719 275.003906 352.261719 276.753906 C 351.226562 279.675781 351.652344 282.761719 353.441406 285.226562 L 362.121094 295.0625 L 362.179688 295.125 C 362.710938 295.6875 373.851562 307.496094 379.871094 312.601562 L 379.886719 312.621094 L 379.910156 312.636719 C 385.140625 317.734375 390.167969 320.929688 397.269531 323.671875 L 397.328125 323.699219 C 398.171875 324.113281 402.742188 326.183594 410.117188 326.183594 " fill-opacity="1" fill-rule="nonzero"/></g><path fill="#621e0b" d="M 359.554688 210.023438 C 358.425781 210.023438 357.398438 209.3125 356.996094 208.253906 L 353.210938 198.230469 C 352.953125 197.546875 352.976562 196.804688 353.273438 196.140625 C 353.578125 195.472656 354.121094 194.96875 354.800781 194.707031 L 354.851562 194.691406 C 355.164062 194.574219 355.488281 194.515625 355.816406 194.515625 C 356.953125 194.515625 357.980469 195.226562 358.378906 196.28125 L 362.164062 206.304688 C 362.695312 207.710938 361.984375 209.296875 360.574219 209.828125 L 360.523438 209.847656 C 360.207031 209.964844 359.882812 210.023438 359.554688 210.023438 " fill-opacity="1" fill-rule="nonzero"/><path fill="#621e0b" d="M 390.660156 228.183594 C 389.523438 228.183594 388.492188 227.472656 388.09375 226.414062 L 388.078125 226.363281 C 387.542969 224.949219 388.257812 223.371094 389.664062 222.835938 L 399.707031 219.042969 C 400.019531 218.925781 400.34375 218.867188 400.675781 218.867188 C 401.808594 218.867188 402.832031 219.578125 403.234375 220.636719 L 403.253906 220.691406 C 403.511719 221.371094 403.488281 222.113281 403.1875 222.777344 C 402.886719 223.441406 402.347656 223.949219 401.664062 224.210938 L 391.617188 228.003906 C 391.308594 228.121094 390.988281 228.183594 390.660156 228.183594 " fill-opacity="1" fill-rule="nonzero"/><path fill="#621e0b" d="M 378.835938 211.992188 C 378.433594 211.992188 378.007812 211.902344 377.609375 211.71875 C 377.195312 211.535156 376.84375 211.261719 376.601562 210.933594 C 375.976562 210.09375 375.851562 209.039062 376.265625 208.117188 L 381.167969 197.257812 C 381.511719 196.496094 382.1875 195.933594 383.003906 195.726562 C 383.210938 195.675781 383.421875 195.648438 383.636719 195.648438 C 384.039062 195.648438 384.457031 195.742188 384.855469 195.921875 C 385.273438 196.113281 385.621094 196.378906 385.867188 196.707031 C 386.496094 197.546875 386.621094 198.601562 386.203125 199.53125 L 381.300781 210.386719 C 380.957031 211.148438 380.289062 211.707031 379.472656 211.917969 C 379.265625 211.96875 379.054688 211.992188 378.835938 211.992188 " fill-opacity="1" fill-rule="nonzero"/><path fill="#621e0b" d="M 338.09375 248.039062 C 336.964844 248.039062 335.9375 247.328125 335.535156 246.269531 L 335.515625 246.214844 C 334.984375 244.808594 335.699219 243.222656 337.109375 242.695312 L 347.296875 238.84375 C 347.613281 238.722656 347.933594 238.664062 348.261719 238.664062 C 349.394531 238.664062 350.421875 239.375 350.820312 240.433594 L 350.84375 240.488281 C 351.097656 241.167969 351.078125 241.914062 350.773438 242.582031 C 350.476562 243.246094 349.929688 243.753906 349.25 244.007812 L 339.0625 247.863281 C 338.75 247.980469 338.421875 248.039062 338.09375 248.039062 " fill-opacity="1" fill-rule="nonzero"/><path fill="#621e0b" d="M 346.464844 224.214844 C 346.078125 224.214844 345.699219 224.136719 345.34375 223.972656 L 334.480469 219.066406 C 333.816406 218.765625 333.304688 218.222656 333.050781 217.539062 C 332.792969 216.855469 332.8125 216.113281 333.113281 215.453125 L 333.125 215.425781 C 333.347656 214.933594 333.675781 214.535156 334.074219 214.269531 C 334.550781 213.957031 335.085938 213.789062 335.628906 213.789062 C 336.015625 213.789062 336.394531 213.871094 336.753906 214.03125 L 347.617188 218.9375 C 348.28125 219.238281 348.789062 219.777344 349.042969 220.464844 C 349.304688 221.148438 349.28125 221.886719 348.980469 222.554688 L 348.972656 222.570312 C 348.75 223.070312 348.421875 223.46875 348.019531 223.738281 C 347.542969 224.050781 347.007812 224.214844 346.464844 224.214844 " fill-opacity="1" fill-rule="nonzero"/><g clip-path="url(#ec0307dbab)"><path fill="#ff7b55" d="M 73.824219 289.777344 C 39.730469 289.777344 11.992188 262.039062 11.992188 227.941406 C 11.992188 193.847656 39.730469 166.105469 73.824219 166.105469 L 370.53125 166.105469 C 404.625 166.105469 432.363281 193.847656 432.363281 227.941406 C 432.363281 230.953125 432.140625 233.917969 431.726562 236.816406 C 432.921875 237.121094 434.089844 237.554688 435.226562 238.117188 C 436.390625 238.703125 437.46875 239.402344 438.457031 240.203125 C 439.175781 236.222656 439.546875 232.121094 439.546875 227.941406 C 439.546875 189.882812 408.585938 158.921875 370.53125 158.921875 L 73.824219 158.921875 C 35.769531 158.921875 4.808594 189.882812 4.808594 227.941406 C 4.808594 266 35.769531 296.960938 73.824219 296.960938 L 354.214844 296.960938 L 347.875 289.777344 L 73.824219 289.777344 " fill-opacity="1" fill-rule="nonzero"/></g><path stroke-linecap="butt" transform="matrix(0.919825, 0, 0, 0.919825, 25.681231, 177.243399)" fill="none" stroke-linejoin="miter" d="M 21.898725 59.924334 C 22.777798 60.005022 24.455258 60.162151 26.136964 60.162151 L 31.097148 74.630771 C 31.428394 75.433403 32.150338 75.998219 33.029412 75.998219 L 37.81548 75.998219 C 39.594861 75.998219 40.37626 74.885575 39.751991 73.284556 L 33.908486 58.323316 C 38.303855 55.766782 41.098205 50.471106 41.098205 43.442763 C 41.098205 34.006522 34.711118 28.247952 24.633621 28.247952 C 20.628951 28.247952 16.390712 28.969896 13.579374 30.08254 C 12.955105 30.316111 12.46673 31.038055 12.46673 31.840688 L 13.579374 74.087189 C 13.655816 75.199833 14.458448 75.998219 15.588079 75.998219 L 19.907007 75.998219 C 21.096092 75.998219 21.898725 75.199833 21.898725 74.006501 Z M 24.79075 52.798316 C 23.576184 52.798316 22.46354 52.641187 21.822283 52.560499 L 21.822283 36.155369 C 22.46354 35.99824 23.656872 35.845357 24.943632 35.845357 C 29.419689 35.845357 32.621726 38.869031 32.621726 43.676333 C 32.621726 49.358462 29.339001 52.798316 24.79075 52.798316 Z M 55.983005 56.955867 L 64.697301 56.955867 C 65.90762 56.955867 66.706006 56.157482 66.706006 54.96415 L 66.706006 51.447855 C 66.706006 49.927524 65.826932 49.43915 64.459484 49.43915 L 55.906563 50.318224 L 55.906563 37.034442 L 68.544841 37.034442 C 69.733926 37.034442 70.536559 36.236057 70.536559 35.042725 L 70.536559 31.52643 C 70.536559 30.158982 69.733926 29.517725 68.464153 29.517725 L 48.466287 30.392552 C 47.272955 30.47324 46.474569 31.271626 46.55101 32.486191 L 47.663654 74.087189 C 47.744342 75.199833 48.542728 75.998219 49.655372 75.998219 L 67.899338 75.998219 C 69.109657 75.998219 69.912289 75.199833 69.912289 74.006501 L 69.912289 69.92539 C 69.912289 68.481501 69.033215 67.912439 67.665767 67.912439 L 55.983005 69.360575 Z M 94.135655 55.766782 C 94.135655 56.955867 94.934041 57.7585 96.148606 57.7585 L 100.072588 57.7585 C 99.974913 64.009691 97.592496 69.517704 93.511385 69.517704 C 88.062826 69.517704 85.034906 62.404426 84.937231 52.407616 C 84.937231 42.151756 88.470513 35.845357 93.587826 35.845357 C 95.503103 35.845357 97.26125 36.724431 98.390881 38.55902 C 99.019398 39.595222 99.741343 40.160038 100.463287 40.160038 C 101.028103 40.160038 101.575931 39.926468 102.221435 39.438093 L 105.11346 36.958001 C 105.657042 36.486614 105.911846 35.688228 105.657042 34.966283 C 103.822453 30.880926 99.269955 28.247952 93.902085 28.247952 C 82.945513 28.247952 75.73456 37.837075 75.73456 52.229254 C 75.73456 67.114053 82.631255 77.289226 92.785194 77.289226 C 102.943379 77.289226 109.096896 68.167243 109.096896 56.565168 L 109.096896 52.951198 C 109.096896 51.604984 108.217822 50.95948 106.948049 50.95948 L 95.991477 51.762113 C 94.857599 51.838554 94.135655 52.641187 94.135655 53.753831 Z M 122.465611 74.006501 L 122.38917 31.683559 C 122.38917 30.158982 121.510097 29.670607 120.142648 29.670607 L 114.791765 30.239669 C 113.657887 30.392552 112.935942 31.195184 113.01663 32.329062 L 114.146261 74.087189 C 114.226949 75.199833 115.025335 75.998219 116.137979 75.998219 L 120.456907 75.998219 C 121.667226 75.998219 122.465611 75.199833 122.465611 74.006501 Z M 155.029561 63.440629 C 155.029561 46.568358 135.910769 51.116609 135.910769 42.151756 C 135.910769 38.325449 138.624431 35.99824 142.39553 35.99824 C 144.952063 35.99824 147.258039 37.11513 148.5448 39.047394 C 149.190303 39.926468 149.814573 40.474296 150.536517 40.474296 C 151.024892 40.474296 151.496279 40.317167 152.061095 39.84578 C 153.020856 38.966706 154.074046 37.913516 154.95312 37.191572 C 155.500948 36.724431 155.832194 35.921798 155.57739 35.199854 C 154.074046 31.271626 148.859058 28.324393 142.140726 28.324393 C 132.942302 28.324393 126.788786 33.930081 126.788786 41.994627 C 126.788786 59.283077 145.988266 54.242205 145.988266 63.521317 C 145.988266 67.288169 143.427486 69.517704 139.817763 69.517704 C 137.431099 69.517704 135.031695 68.069568 133.430676 65.920721 C 132.785173 65.198776 132.13967 64.710402 131.417725 64.710402 C 130.950584 64.710402 130.46221 64.965206 129.914381 65.355906 C 128.856945 66.234979 127.744301 67.033365 126.788786 67.912439 C 126.066841 68.400813 125.833271 69.360575 126.22397 70.08252 C 128.546933 74.087189 133.897817 77.191551 140.225449 77.191551 C 149.016187 77.191551 155.029561 71.759979 155.029561 63.440629 Z M 158.380233 35.433424 C 158.380233 36.643743 159.178619 37.446376 160.393185 37.446376 L 168.534172 37.446376 L 169.510921 74.087189 C 169.591609 75.199833 170.389995 75.998219 171.502639 75.998219 L 175.740878 75.998219 C 176.955444 75.998219 177.736843 75.199833 177.736843 74.006501 L 177.656155 37.446376 L 185.822623 37.446376 C 187.032942 37.446376 187.831328 36.643743 187.831328 35.433424 L 187.733653 31.271626 C 187.657212 30.001852 186.854579 29.360596 185.665494 29.360596 L 160.312497 30.239669 C 159.178619 30.316111 158.380233 31.118743 158.380233 32.231387 Z M 200.860305 59.924334 C 201.735132 60.005022 203.416838 60.162151 205.098544 60.162151 L 210.058729 74.630771 C 210.389974 75.433403 211.111919 75.998219 211.990992 75.998219 L 216.777061 75.998219 C 218.552195 75.998219 219.333594 74.885575 218.709324 73.284556 L 212.870066 58.323316 C 217.265435 55.766782 220.055539 50.471106 220.055539 43.442763 C 220.055539 34.006522 213.672699 28.247952 203.590954 28.247952 C 199.590532 28.247952 195.352292 28.969896 192.536708 30.08254 C 191.912438 30.316111 191.424064 31.038055 191.424064 31.840688 L 192.536708 74.087189 C 192.617396 75.199833 193.415782 75.998219 194.549659 75.998219 L 198.86434 75.998219 C 200.057672 75.998219 200.860305 75.199833 200.860305 74.006501 Z M 203.748083 52.798316 C 202.537764 52.798316 201.42512 52.641187 200.779617 52.560499 L 200.779617 36.155369 C 201.42512 35.99824 202.614206 35.845357 203.905212 35.845357 C 208.377022 35.845357 211.579059 38.869031 211.579059 43.676333 C 211.579059 49.358462 208.300581 52.798316 203.748083 52.798316 Z M 233.751253 67.288169 L 247.914108 66.880483 L 249.829384 74.477888 C 250.062955 75.356962 250.861341 75.998219 251.740414 75.998219 L 256.624157 75.998219 C 258.225176 75.998219 259.027808 74.966263 258.615875 73.518127 L 247.268604 31.118743 C 247.0138 30.001852 246.232401 29.594166 245.179212 29.594166 L 235.666529 30.549681 C 234.868144 30.647356 234.141952 31.271626 233.98907 32.074258 L 223.499639 73.518127 C 223.10894 75.042704 223.911572 75.998219 225.431903 75.998219 L 230.217971 75.998219 C 231.173486 75.998219 231.976118 75.356962 232.150234 74.3972 Z M 246.313089 59.359518 L 235.823659 59.43596 L 240.473831 38.635461 L 241.017413 38.635461 Z M 260.458957 35.433424 C 260.458957 36.643743 261.26159 37.446376 262.471909 37.446376 L 270.617143 37.446376 L 271.593892 74.087189 C 271.670333 75.199833 272.472965 75.998219 273.585609 75.998219 L 277.823849 75.998219 C 279.034168 75.998219 279.815567 75.199833 279.815567 74.006501 L 279.734879 37.446376 L 287.901347 37.446376 C 289.111666 37.446376 289.914298 36.643743 289.914298 35.433424 L 289.816623 31.271626 C 289.735935 30.001852 288.93755 29.360596 287.744218 29.360596 L 262.391221 30.239669 C 261.26159 30.316111 260.458957 31.118743 260.458957 32.231387 Z M 303.503844 56.955867 L 312.213894 56.955867 C 313.42846 56.955867 314.226845 56.157482 314.226845 54.96415 L 314.226845 51.447855 C 314.226845 49.927524 313.347772 49.43915 311.980324 49.43915 L 303.427403 50.318224 L 303.427403 37.034442 L 316.061434 37.034442 C 317.254766 37.034442 318.057399 36.236057 318.057399 35.042725 L 318.057399 31.52643 C 318.057399 30.158982 317.254766 29.517725 315.984993 29.517725 L 295.987127 30.392552 C 294.793795 30.47324 293.991162 31.271626 294.07185 32.486191 L 295.184494 74.087189 C 295.260935 75.199833 296.063568 75.998219 297.176212 75.998219 L 315.420177 75.998219 C 316.630496 75.998219 317.428882 75.199833 317.428882 74.006501 L 317.428882 69.92539 C 317.428882 68.481501 316.549808 67.912439 315.18236 67.912439 L 303.503844 69.360575 Z M 303.503844 56.955867 " stroke="#801c00" stroke-width="6" stroke-opacity="1" stroke-miterlimit="4"/><g fill="#ff7b55" fill-opacity="1"><g transform="translate(34.865106, 247.150076)"><g><path d="M 10.96875 -14.796875 C 11.78125 -14.71875 13.328125 -14.578125 14.859375 -14.578125 L 19.421875 -1.25 C 19.71875 -0.515625 20.390625 0 21.1875 0 L 25.609375 0 C 27.234375 0 27.96875 -1.03125 27.375 -2.5 L 22 -16.265625 C 26.046875 -18.625 28.625 -23.46875 28.625 -29.953125 C 28.625 -38.640625 22.734375 -43.9375 13.46875 -43.9375 C 9.78125 -43.9375 5.890625 -43.265625 3.3125 -42.25 C 2.71875 -42.015625 2.28125 -41.359375 2.28125 -40.625 L 3.3125 -1.765625 C 3.390625 -0.734375 4.125 0 5.15625 0 L 9.125 0 C 10.234375 0 10.96875 -0.734375 10.96875 -1.84375 Z M 13.609375 -21.34375 C 12.515625 -21.34375 11.484375 -21.484375 10.890625 -21.5625 L 10.890625 -36.65625 C 11.484375 -36.796875 12.578125 -36.9375 13.765625 -36.9375 C 17.890625 -36.9375 20.828125 -34.140625 20.828125 -29.734375 C 20.828125 -24.5 17.8125 -21.34375 13.609375 -21.34375 Z M 13.609375 -21.34375 "/></g></g></g><g fill="#ff7b55" fill-opacity="1"><g transform="translate(65.697606, 247.150076)"><g><path d="M 11.484375 -17.515625 L 19.5 -17.515625 C 20.609375 -17.515625 21.34375 -18.25 21.34375 -19.359375 L 21.34375 -22.59375 C 21.34375 -23.984375 20.53125 -24.4375 19.28125 -24.4375 L 11.40625 -23.625 L 11.40625 -35.84375 L 23.03125 -35.84375 C 24.140625 -35.84375 24.875 -36.578125 24.875 -37.6875 L 24.875 -40.921875 C 24.875 -42.171875 24.140625 -42.765625 22.96875 -42.765625 L 4.5625 -41.953125 C 3.453125 -41.875 2.71875 -41.140625 2.796875 -40.03125 L 3.828125 -1.765625 C 3.90625 -0.734375 4.640625 0 5.671875 0 L 22.453125 0 C 23.546875 0 24.28125 -0.734375 24.28125 -1.84375 L 24.28125 -5.59375 C 24.28125 -6.921875 23.46875 -7.4375 22.21875 -7.4375 L 11.484375 -6.109375 Z M 11.484375 -17.515625 "/></g></g></g><g fill="#ff7b55" fill-opacity="1"><g transform="translate(93.513082, 247.150076)"><g><path d="M 18.765625 -18.625 C 18.765625 -17.515625 19.5 -16.78125 20.609375 -16.78125 L 24.21875 -16.78125 C 24.140625 -11.046875 21.9375 -5.96875 18.171875 -5.96875 C 13.171875 -5.96875 10.375 -12.515625 10.296875 -21.703125 C 10.296875 -31.125 13.546875 -36.9375 18.25 -36.9375 C 20.015625 -36.9375 21.640625 -36.140625 22.671875 -34.4375 C 23.25 -33.484375 23.921875 -32.96875 24.578125 -32.96875 C 25.09375 -32.96875 25.609375 -33.1875 26.203125 -33.625 L 28.84375 -35.90625 C 29.359375 -36.359375 29.578125 -37.09375 29.359375 -37.75 C 27.671875 -41.5 23.46875 -43.9375 18.546875 -43.9375 C 8.46875 -43.9375 1.84375 -35.109375 1.84375 -21.859375 C 1.84375 -8.171875 8.171875 1.171875 17.515625 1.171875 C 26.859375 1.171875 32.53125 -7.21875 32.53125 -17.890625 L 32.53125 -21.1875 C 32.53125 -22.453125 31.71875 -23.03125 30.546875 -23.03125 L 20.453125 -22.296875 C 19.421875 -22.21875 18.765625 -21.484375 18.765625 -20.453125 Z M 18.765625 -18.625 "/></g></g></g><g fill="#ff7b55" fill-opacity="1"><g transform="translate(127.730529, 247.150076)"><g><path d="M 10.59375 -1.84375 L 10.53125 -40.765625 C 10.53125 -42.171875 9.71875 -42.609375 8.46875 -42.609375 L 3.53125 -42.09375 C 2.5 -41.953125 1.84375 -41.21875 1.90625 -40.1875 L 2.9375 -1.765625 C 3.015625 -0.734375 3.75 0 4.78125 0 L 8.75 0 C 9.859375 0 10.59375 -0.734375 10.59375 -1.84375 Z M 10.59375 -1.84375 "/></g></g></g><g fill="#ff7b55" fill-opacity="1"><g transform="translate(140.166549, 247.150076)"><g><path d="M 28.109375 -11.546875 C 28.109375 -27.078125 10.53125 -22.890625 10.53125 -31.125 C 10.53125 -34.65625 13.03125 -36.796875 16.484375 -36.796875 C 18.84375 -36.796875 20.96875 -35.765625 22.15625 -34 C 22.734375 -33.1875 23.328125 -32.671875 23.984375 -32.671875 C 24.4375 -32.671875 24.875 -32.828125 25.390625 -33.265625 C 26.265625 -34.078125 27.234375 -35.03125 28.046875 -35.6875 C 28.546875 -36.140625 28.84375 -36.875 28.625 -37.53125 C 27.234375 -41.140625 22.453125 -43.859375 16.265625 -43.859375 C 7.796875 -43.859375 2.140625 -38.703125 2.140625 -31.28125 C 2.140625 -15.375 19.796875 -20.015625 19.796875 -11.484375 C 19.796875 -8.015625 17.4375 -5.96875 14.125 -5.96875 C 11.921875 -5.96875 9.71875 -7.28125 8.25 -9.265625 C 7.65625 -9.9375 7.0625 -10.375 6.40625 -10.375 C 5.96875 -10.375 5.515625 -10.15625 5 -9.78125 C 4.046875 -8.984375 3.015625 -8.25 2.140625 -7.4375 C 1.46875 -6.984375 1.25 -6.109375 1.625 -5.453125 C 3.75 -1.765625 8.6875 1.109375 14.5 1.109375 C 22.59375 1.109375 28.109375 -3.90625 28.109375 -11.546875 Z M 28.109375 -11.546875 "/></g></g></g><g fill="#ff7b55" fill-opacity="1"><g transform="translate(170.410361, 247.150076)"><g><path d="M 0.953125 -37.3125 C 0.953125 -36.203125 1.6875 -35.46875 2.796875 -35.46875 L 10.296875 -35.46875 L 11.1875 -1.765625 C 11.265625 -0.734375 12 0 13.03125 0 L 16.921875 0 C 18.03125 0 18.765625 -0.734375 18.765625 -1.84375 L 18.6875 -35.46875 L 26.203125 -35.46875 C 27.296875 -35.46875 28.046875 -36.203125 28.046875 -37.3125 L 27.96875 -41.140625 C 27.890625 -42.3125 27.15625 -42.90625 26.046875 -42.90625 L 2.71875 -42.09375 C 1.6875 -42.015625 0.953125 -41.28125 0.953125 -40.25 Z M 0.953125 -37.3125 "/></g></g></g><g fill="#ff7b55" fill-opacity="1"><g transform="translate(199.476799, 247.150076)"><g><path d="M 10.96875 -14.796875 C 11.78125 -14.71875 13.328125 -14.578125 14.859375 -14.578125 L 19.421875 -1.25 C 19.71875 -0.515625 20.390625 0 21.1875 0 L 25.609375 0 C 27.234375 0 27.96875 -1.03125 27.375 -2.5 L 22 -16.265625 C 26.046875 -18.625 28.625 -23.46875 28.625 -29.953125 C 28.625 -38.640625 22.734375 -43.9375 13.46875 -43.9375 C 9.78125 -43.9375 5.890625 -43.265625 3.3125 -42.25 C 2.71875 -42.015625 2.28125 -41.359375 2.28125 -40.625 L 3.3125 -1.765625 C 3.390625 -0.734375 4.125 0 5.15625 0 L 9.125 0 C 10.234375 0 10.96875 -0.734375 10.96875 -1.84375 Z M 13.609375 -21.34375 C 12.515625 -21.34375 11.484375 -21.484375 10.890625 -21.5625 L 10.890625 -36.65625 C 11.484375 -36.796875 12.578125 -36.9375 13.765625 -36.9375 C 17.890625 -36.9375 20.828125 -34.140625 20.828125 -29.734375 C 20.828125 -24.5 17.8125 -21.34375 13.609375 -21.34375 Z M 13.609375 -21.34375 "/></g></g></g><g fill="#ff7b55" fill-opacity="1"><g transform="translate(230.309299, 247.150076)"><g><path d="M 10.375 -8.015625 L 23.40625 -8.390625 L 25.171875 -1.390625 C 25.390625 -0.59375 26.125 0 26.9375 0 L 31.421875 0 C 32.890625 0 33.625 -0.953125 33.265625 -2.28125 L 22.8125 -41.28125 C 22.59375 -42.3125 21.859375 -42.6875 20.90625 -42.6875 L 12.140625 -41.796875 C 11.40625 -41.734375 10.75 -41.140625 10.59375 -40.40625 L 0.953125 -2.28125 C 0.59375 -0.890625 1.328125 0 2.71875 0 L 7.140625 0 C 8.015625 0 8.75 -0.59375 8.90625 -1.46875 Z M 21.9375 -15.3125 L 12.296875 -15.234375 L 16.5625 -34.375 L 17.078125 -34.375 Z M 21.9375 -15.3125 "/></g></g></g><g fill="#ff7b55" fill-opacity="1"><g transform="translate(264.305984, 247.150076)"><g><path d="M 0.953125 -37.3125 C 0.953125 -36.203125 1.6875 -35.46875 2.796875 -35.46875 L 10.296875 -35.46875 L 11.1875 -1.765625 C 11.265625 -0.734375 12 0 13.03125 0 L 16.921875 0 C 18.03125 0 18.765625 -0.734375 18.765625 -1.84375 L 18.6875 -35.46875 L 26.203125 -35.46875 C 27.296875 -35.46875 28.046875 -36.203125 28.046875 -37.3125 L 27.96875 -41.140625 C 27.890625 -42.3125 27.15625 -42.90625 26.046875 -42.90625 L 2.71875 -42.09375 C 1.6875 -42.015625 0.953125 -41.28125 0.953125 -40.25 Z M 0.953125 -37.3125 "/></g></g></g><g fill="#ff7b55" fill-opacity="1"><g transform="translate(293.372422, 247.150076)"><g><path d="M 11.484375 -17.515625 L 19.5 -17.515625 C 20.609375 -17.515625 21.34375 -18.25 21.34375 -19.359375 L 21.34375 -22.59375 C 21.34375 -23.984375 20.53125 -24.4375 19.28125 -24.4375 L 11.40625 -23.625 L 11.40625 -35.84375 L 23.03125 -35.84375 C 24.140625 -35.84375 24.875 -36.578125 24.875 -37.6875 L 24.875 -40.921875 C 24.875 -42.171875 24.140625 -42.765625 22.96875 -42.765625 L 4.5625 -41.953125 C 3.453125 -41.875 2.71875 -41.140625 2.796875 -40.03125 L 3.828125 -1.765625 C 3.90625 -0.734375 4.640625 0 5.671875 0 L 22.453125 0 C 23.546875 0 24.28125 -0.734375 24.28125 -1.84375 L 24.28125 -5.59375 C 24.28125 -6.921875 23.46875 -7.4375 22.21875 -7.4375 L 11.484375 -6.109375 Z M 11.484375 -17.515625 "/></g></g></g></svg>